<svg id="visual" viewBox="0 0 500 500" width="500" height="500" xmlns="http://www.w3.org/2000/svg" xmlns:xlink="http://www.w3.org/1999/xlink" version="1.1"><rect x="0" y="0" width="500" height="500" fill="#332c40"></rect><defs><linearGradient id="grad1_0" x1="0%" y1="0%" x2="100%" y2="100%"><stop offset="30%" stop-color="#000000" stop-opacity="1"></stop><stop offset="70%" stop-color="#000000" stop-opacity="1"></stop></linearGradient></defs><defs><linearGradient id="grad1_1" x1="0%" y1="0%" x2="100%" y2="100%"><stop offset="30%" stop-color="#000000" stop-opacity="1"></stop><stop offset="70%" stop-color="#1e182a" stop-opacity="1"></stop></linearGradient></defs><defs><linearGradient id="grad1_2" x1="0%" y1="0%" x2="100%" y2="100%"><stop offset="30%" stop-color="#332c40" stop-opacity="1"></stop><stop offset="70%" stop-color="#1e182a" stop-opacity="1"></stop></linearGradient></defs><defs><linearGradient id="grad2_0" x1="0%" y1="0%" x2="100%" y2="100%"><stop offset="30%" stop-color="#000000" stop-opacity="1"></stop><stop offset="70%" stop-color="#000000" stop-opacity="1"></stop></linearGradient></defs><defs><linearGradient id="grad2_1" x1="0%" y1="0%" x2="100%" y2="100%"><stop offset="30%" stop-color="#1e182a" stop-opacity="1"></stop><stop offset="70%" stop-color="#000000" stop-opacity="1"></stop></linearGradient></defs><defs><linearGradient id="grad2_2" x1="0%" y1="0%" x2="100%" y2="100%"><stop offset="30%" stop-color="#1e182a" stop-opacity="1"></stop><stop offset="70%" stop-color="#332c40" stop-opacity="1"></stop></linearGradient></defs><g transform="translate(500, 0)"><path d="M0 335.9C-42 298.7 -84 261.5 -137.5 238.2C-191 214.8 -255.9 205.3 -290.9 167.9C-325.8 130.6 -330.9 65.3 -335.9 0L0 0Z" fill="#282235"></path><path d="M0 223.9C-28 199.1 -56 174.3 -91.7 158.8C-127.3 143.2 -170.6 136.9 -193.9 112C-217.2 87 -220.6 43.5 -223.9 0L0 0Z" fill="#150c20"></path><path d="M0 112C-14 99.6 -28 87.2 -45.8 79.4C-63.7 71.6 -85.3 68.4 -97 56C-108.6 43.5 -110.3 21.8 -112 0L0 0Z" fill="#000000"></path></g><g transform="translate(0, 500)"><path d="M0 -335.9C28.1 -274.7 56.3 -213.5 111.5 -193.1C166.7 -172.8 249 -193.3 290.9 -167.9C332.8 -142.6 334.3 -71.3 335.9 0L0 0Z" fill="#282235"></path><path d="M0 -223.9C18.8 -183.1 37.5 -142.3 74.3 -128.7C111.1 -115.2 166 -128.9 193.9 -112C221.9 -95 222.9 -47.5 223.9 0L0 0Z" fill="#150c20"></path><path d="M0 -112C9.4 -91.6 18.8 -71.2 37.2 -64.4C55.6 -57.6 83 -64.4 97 -56C110.9 -47.5 111.4 -23.8 112 0L0 0Z" fill="#000000"></path></g></svg>