<svg id="visual" viewBox="0 0 900 450" width="900" height="450" xmlns="http://www.w3.org/2000/svg" xmlns:xlink="http://www.w3.org/1999/xlink" version="1.1"><rect x="0" y="0" width="900" height="450" fill="#17141d"></rect><path d="M0 78L30 88.7C60 99.3 120 120.7 180 121.2C240 121.7 300 101.3 360 94.7C420 88 480 95 540 121.7C600 148.3 660 194.7 720 188.5C780 182.3 840 123.7 870 94.3L900 65L900 451L870 451C840 451 780 451 720 451C660 451 600 451 540 451C480 451 420 451 360 451C300 451 240 451 180 451C120 451 60 451 30 451L0 451Z" fill="#332c40"></path><path d="M0 232L30 248.2C60 264.3 120 296.7 180 322C240 347.3 300 365.7 360 340.7C420 315.7 480 247.3 540 241.2C600 235 660 291 720 304.3C780 317.7 840 288.3 870 273.7L900 259L900 451L870 451C840 451 780 451 720 451C660 451 600 451 540 451C480 451 420 451 360 451C300 451 240 451 180 451C120 451 60 451 30 451L0 451Z" fill="#4e4463"></path></svg>